<mxfile host="Electron" modified="2023-10-25T11:45:15.631Z" agent="Mozilla/5.0 (X11; Linux x86_64) AppleWebKit/537.36 (KHTML, like Gecko) draw.io/22.0.2 Chrome/114.0.5735.289 Electron/25.8.4 Safari/537.36" etag="0izTqcrov9GK3zBWpJ6z" version="22.0.2" type="device">
  <diagram name="Page-1" id="rW4sjYkNgKiI6jQHrd_K">
    <mxGraphModel dx="1242" dy="865" grid="1" gridSize="10" guides="1" tooltips="1" connect="1" arrows="1" fold="1" page="1" pageScale="1" pageWidth="850" pageHeight="1100" math="0" shadow="0">
      <root>
        <mxCell id="0" />
        <mxCell id="1" parent="0" />
        <mxCell id="oq4RC59p99LL9JI8eV2d-1" value="" style="rounded=0;whiteSpace=wrap;html=1;fillColor=#dae8fc;strokeColor=#6c8ebf;" parent="1" vertex="1">
          <mxGeometry x="60" y="220" width="310" height="230" as="geometry" />
        </mxCell>
        <mxCell id="oq4RC59p99LL9JI8eV2d-2" value="" style="rounded=0;whiteSpace=wrap;html=1;fillColor=#fff2cc;strokeColor=#d6b656;" parent="1" vertex="1">
          <mxGeometry x="410" y="270" width="120" height="130" as="geometry" />
        </mxCell>
        <mxCell id="oq4RC59p99LL9JI8eV2d-3" value="" style="ellipse;whiteSpace=wrap;html=1;aspect=fixed;fillColor=#f5f5f5;fontColor=#333333;strokeColor=#666666;" parent="1" vertex="1">
          <mxGeometry x="510" y="280" width="40" height="40" as="geometry" />
        </mxCell>
        <mxCell id="oq4RC59p99LL9JI8eV2d-4" value="signal-estimator" style="rounded=0;whiteSpace=wrap;html=1;fillColor=#F7FFF5;strokeColor=#666666;fontColor=#333333;fontStyle=1" parent="1" vertex="1">
          <mxGeometry x="80" y="305" width="120" height="60" as="geometry" />
        </mxCell>
        <mxCell id="oq4RC59p99LL9JI8eV2d-5" value="output&lt;br&gt;ALSA device" style="rounded=0;whiteSpace=wrap;html=1;fillColor=#f5f5f5;strokeColor=#666666;fontColor=#333333;fontStyle=1" parent="1" vertex="1">
          <mxGeometry x="230" y="240" width="120" height="50" as="geometry" />
        </mxCell>
        <mxCell id="oq4RC59p99LL9JI8eV2d-6" value="input&lt;br&gt;ALSA device" style="rounded=0;whiteSpace=wrap;html=1;fillColor=#f5f5f5;strokeColor=#666666;fontColor=#333333;fontStyle=1" parent="1" vertex="1">
          <mxGeometry x="230" y="380" width="120" height="50" as="geometry" />
        </mxCell>
        <mxCell id="oq4RC59p99LL9JI8eV2d-7" value="" style="ellipse;whiteSpace=wrap;html=1;aspect=fixed;fillColor=#f5f5f5;fontColor=#333333;strokeColor=#666666;" parent="1" vertex="1">
          <mxGeometry x="510" y="350" width="40" height="40" as="geometry" />
        </mxCell>
        <mxCell id="oq4RC59p99LL9JI8eV2d-8" value="" style="endArrow=classic;html=1;rounded=0;" parent="1" source="oq4RC59p99LL9JI8eV2d-4" target="oq4RC59p99LL9JI8eV2d-5" edge="1">
          <mxGeometry width="50" height="50" relative="1" as="geometry">
            <mxPoint x="200" y="220" as="sourcePoint" />
            <mxPoint x="250" y="170" as="targetPoint" />
          </mxGeometry>
        </mxCell>
        <mxCell id="oq4RC59p99LL9JI8eV2d-9" value="" style="endArrow=classic;html=1;rounded=0;fillColor=#e51400;strokeColor=#B20000;strokeWidth=2;" parent="1" source="oq4RC59p99LL9JI8eV2d-5" target="oq4RC59p99LL9JI8eV2d-3" edge="1">
          <mxGeometry width="50" height="50" relative="1" as="geometry">
            <mxPoint x="160" y="220" as="sourcePoint" />
            <mxPoint x="210" y="170" as="targetPoint" />
            <Array as="points">
              <mxPoint x="390" y="300" />
            </Array>
          </mxGeometry>
        </mxCell>
        <mxCell id="oq4RC59p99LL9JI8eV2d-10" value="" style="endArrow=classic;html=1;rounded=0;fillColor=#e51400;strokeColor=#B20000;strokeWidth=2;" parent="1" source="oq4RC59p99LL9JI8eV2d-7" target="oq4RC59p99LL9JI8eV2d-6" edge="1">
          <mxGeometry width="50" height="50" relative="1" as="geometry">
            <mxPoint x="160" y="220" as="sourcePoint" />
            <mxPoint x="210" y="170" as="targetPoint" />
            <Array as="points">
              <mxPoint x="390" y="370" />
            </Array>
          </mxGeometry>
        </mxCell>
        <mxCell id="oq4RC59p99LL9JI8eV2d-11" value="" style="endArrow=classic;html=1;rounded=0;" parent="1" source="oq4RC59p99LL9JI8eV2d-6" target="oq4RC59p99LL9JI8eV2d-4" edge="1">
          <mxGeometry width="50" height="50" relative="1" as="geometry">
            <mxPoint x="200" y="220" as="sourcePoint" />
            <mxPoint x="250" y="170" as="targetPoint" />
          </mxGeometry>
        </mxCell>
        <mxCell id="oq4RC59p99LL9JI8eV2d-12" value="PC" style="text;html=1;strokeColor=none;fillColor=none;align=center;verticalAlign=middle;whiteSpace=wrap;rounded=0;fontStyle=1;fontSize=16;" parent="1" vertex="1">
          <mxGeometry x="70" y="230" width="60" height="30" as="geometry" />
        </mxCell>
        <mxCell id="oq4RC59p99LL9JI8eV2d-13" value="sound&lt;br style=&quot;font-size: 16px;&quot;&gt;card" style="text;html=1;strokeColor=none;fillColor=none;align=center;verticalAlign=middle;whiteSpace=wrap;rounded=0;fontStyle=1;fontSize=16;" parent="1" vertex="1">
          <mxGeometry x="440" y="320" width="60" height="30" as="geometry" />
        </mxCell>
        <mxCell id="oq4RC59p99LL9JI8eV2d-15" value="" style="shape=image;verticalLabelPosition=bottom;labelBackgroundColor=default;verticalAlign=top;aspect=fixed;imageAspect=0;image=data:image/svg+xml,PHN2ZyB4bWxucz0iaHR0cDovL3d3dy53My5vcmcvMjAwMC9zdmciIHdpZHRoPSIyNCIgdmlld0JveD0iMCAtOTYwIDk2MCA5NjAiIGhlaWdodD0iMjQiPjxwYXRoIGQ9Ik0zNjAtMTIwSDIwMHEtMzMgMC01Ni41LTIzLjVUMTIwLTIwMHYtMjgwcTAtNzUgMjguNS0xNDAuNXQ3Ny0xMTRxNDguNS00OC41IDExNC03N1Q0ODAtODQwcTc1IDAgMTQwLjUgMjguNXQxMTQgNzdxNDguNSA0OC41IDc3IDExNFQ4NDAtNDgwdjI4MHEwIDMzLTIzLjUgNTYuNVQ3NjAtMTIwSDYwMHYtMzIwaDE2MHYtNDBxMC0xMTctODEuNS0xOTguNVQ0ODAtNzYwcS0xMTcgMC0xOTguNSA4MS41VDIwMC00ODB2NDBoMTYwdjMyMFptLTgwLTI0MGgtODB2MTYwaDgwdi0xNjBabTQwMCAwdjE2MGg4MHYtMTYwaC04MFptLTQwMCAwaC04MCA4MFptNDAwIDBoODAtODBaIi8+PC9zdmc+;" parent="1" vertex="1">
          <mxGeometry x="520" y="290" width="20" height="20" as="geometry" />
        </mxCell>
        <mxCell id="oq4RC59p99LL9JI8eV2d-16" value="" style="shape=image;verticalLabelPosition=bottom;labelBackgroundColor=default;verticalAlign=top;aspect=fixed;imageAspect=0;image=data:image/svg+xml,PHN2ZyB4bWxucz0iaHR0cDovL3d3dy53My5vcmcvMjAwMC9zdmciIHdpZHRoPSIyNCIgdmlld0JveD0iMCAtOTYwIDk2MCA5NjAiIGhlaWdodD0iMjQiPjxwYXRoIGQ9Ik00ODAtNDAwcS01MCAwLTg1LTM1dC0zNS04NXYtMjQwcTAtNTAgMzUtODV0ODUtMzVxNTAgMCA4NSAzNXQzNSA4NXYyNDBxMCA1MC0zNSA4NXQtODUgMzVabTAtMjQwWm0tNDAgNTIwdi0xMjNxLTEwNC0xNC0xNzItOTN0LTY4LTE4NGg4MHEwIDgzIDU4LjUgMTQxLjVUNDgwLTMyMHE4MyAwIDE0MS41LTU4LjVUNjgwLTUyMGg4MHEwIDEwNS02OCAxODR0LTE3MiA5M3YxMjNoLTgwWm00MC0zNjBxMTcgMCAyOC41LTExLjVUNTIwLTUyMHYtMjQwcTAtMTctMTEuNS0yOC41VDQ4MC04MDBxLTE3IDAtMjguNSAxMS41VDQ0MC03NjB2MjQwcTAgMTcgMTEuNSAyOC41VDQ4MC00ODBaIi8+PC9zdmc+;" parent="1" vertex="1">
          <mxGeometry x="520" y="360" width="20" height="20" as="geometry" />
        </mxCell>
        <mxCell id="oq4RC59p99LL9JI8eV2d-18" value="" style="rounded=0;whiteSpace=wrap;html=1;fillColor=#dae8fc;strokeColor=#6c8ebf;" parent="1" vertex="1">
          <mxGeometry x="790" y="220" width="310" height="230" as="geometry" />
        </mxCell>
        <mxCell id="oq4RC59p99LL9JI8eV2d-19" value="loopback&lt;br&gt;software" style="rounded=0;whiteSpace=wrap;html=1;fillColor=#f5f5f5;strokeColor=#666666;fontColor=#333333;fontStyle=1" parent="1" vertex="1">
          <mxGeometry x="960" y="300" width="120" height="60" as="geometry" />
        </mxCell>
        <mxCell id="oq4RC59p99LL9JI8eV2d-20" value="output&lt;br&gt;ALSA device" style="rounded=0;whiteSpace=wrap;html=1;fillColor=#f5f5f5;strokeColor=#666666;fontColor=#333333;fontStyle=1" parent="1" vertex="1">
          <mxGeometry x="810" y="380" width="120" height="50" as="geometry" />
        </mxCell>
        <mxCell id="oq4RC59p99LL9JI8eV2d-21" value="input&lt;br&gt;ALSA device" style="rounded=0;whiteSpace=wrap;html=1;fillColor=#f5f5f5;strokeColor=#666666;fontColor=#333333;fontStyle=1" parent="1" vertex="1">
          <mxGeometry x="810" y="240" width="120" height="50" as="geometry" />
        </mxCell>
        <mxCell id="oq4RC59p99LL9JI8eV2d-22" value="" style="endArrow=classic;html=1;rounded=0;strokeWidth=2;strokeColor=#CF0000;" parent="1" source="oq4RC59p99LL9JI8eV2d-19" target="oq4RC59p99LL9JI8eV2d-20" edge="1">
          <mxGeometry width="50" height="50" relative="1" as="geometry">
            <mxPoint x="920" y="220" as="sourcePoint" />
            <mxPoint x="970" y="170" as="targetPoint" />
          </mxGeometry>
        </mxCell>
        <mxCell id="oq4RC59p99LL9JI8eV2d-23" value="" style="endArrow=classic;html=1;rounded=0;strokeWidth=2;strokeColor=#CF0000;" parent="1" source="oq4RC59p99LL9JI8eV2d-21" target="oq4RC59p99LL9JI8eV2d-19" edge="1">
          <mxGeometry width="50" height="50" relative="1" as="geometry">
            <mxPoint x="920" y="220" as="sourcePoint" />
            <mxPoint x="970" y="170" as="targetPoint" />
          </mxGeometry>
        </mxCell>
        <mxCell id="oq4RC59p99LL9JI8eV2d-24" value="&lt;p style=&quot;line-height: 90%;&quot;&gt;DUT&lt;br&gt;&lt;font style=&quot;font-size: 11px; font-weight: normal;&quot;&gt;(Device Under Test,&lt;br&gt;e.g. another PC)&lt;/font&gt;&lt;/p&gt;" style="text;html=1;strokeColor=none;fillColor=none;align=center;verticalAlign=middle;whiteSpace=wrap;rounded=0;fontStyle=1;fontSize=16;" parent="1" vertex="1">
          <mxGeometry x="960" y="230" width="120" height="60" as="geometry" />
        </mxCell>
        <mxCell id="oq4RC59p99LL9JI8eV2d-33" value="" style="rounded=0;whiteSpace=wrap;html=1;fillColor=#fff2cc;strokeColor=#d6b656;" parent="1" vertex="1">
          <mxGeometry x="630" y="270" width="120" height="130" as="geometry" />
        </mxCell>
        <mxCell id="oq4RC59p99LL9JI8eV2d-34" value="" style="ellipse;whiteSpace=wrap;html=1;aspect=fixed;fillColor=#f5f5f5;fontColor=#333333;strokeColor=#666666;" parent="1" vertex="1">
          <mxGeometry x="610" y="350" width="40" height="40" as="geometry" />
        </mxCell>
        <mxCell id="oq4RC59p99LL9JI8eV2d-35" value="" style="ellipse;whiteSpace=wrap;html=1;aspect=fixed;fillColor=#f5f5f5;fontColor=#333333;strokeColor=#666666;" parent="1" vertex="1">
          <mxGeometry x="610" y="280" width="40" height="40" as="geometry" />
        </mxCell>
        <mxCell id="oq4RC59p99LL9JI8eV2d-36" value="sound&lt;br style=&quot;font-size: 16px;&quot;&gt;card" style="text;html=1;strokeColor=none;fillColor=none;align=center;verticalAlign=middle;whiteSpace=wrap;rounded=0;fontStyle=1;fontSize=16;" parent="1" vertex="1">
          <mxGeometry x="660" y="320" width="60" height="30" as="geometry" />
        </mxCell>
        <mxCell id="oq4RC59p99LL9JI8eV2d-37" value="" style="shape=image;verticalLabelPosition=bottom;labelBackgroundColor=default;verticalAlign=top;aspect=fixed;imageAspect=0;image=data:image/svg+xml,PHN2ZyB4bWxucz0iaHR0cDovL3d3dy53My5vcmcvMjAwMC9zdmciIHdpZHRoPSIyNCIgdmlld0JveD0iMCAtOTYwIDk2MCA5NjAiIGhlaWdodD0iMjQiPjxwYXRoIGQ9Ik0zNjAtMTIwSDIwMHEtMzMgMC01Ni41LTIzLjVUMTIwLTIwMHYtMjgwcTAtNzUgMjguNS0xNDAuNXQ3Ny0xMTRxNDguNS00OC41IDExNC03N1Q0ODAtODQwcTc1IDAgMTQwLjUgMjguNXQxMTQgNzdxNDguNSA0OC41IDc3IDExNFQ4NDAtNDgwdjI4MHEwIDMzLTIzLjUgNTYuNVQ3NjAtMTIwSDYwMHYtMzIwaDE2MHYtNDBxMC0xMTctODEuNS0xOTguNVQ0ODAtNzYwcS0xMTcgMC0xOTguNSA4MS41VDIwMC00ODB2NDBoMTYwdjMyMFptLTgwLTI0MGgtODB2MTYwaDgwdi0xNjBabTQwMCAwdjE2MGg4MHYtMTYwaC04MFptLTQwMCAwaC04MCA4MFptNDAwIDBoODAtODBaIi8+PC9zdmc+;" parent="1" vertex="1">
          <mxGeometry x="620" y="360" width="20" height="20" as="geometry" />
        </mxCell>
        <mxCell id="oq4RC59p99LL9JI8eV2d-38" value="" style="shape=image;verticalLabelPosition=bottom;labelBackgroundColor=default;verticalAlign=top;aspect=fixed;imageAspect=0;image=data:image/svg+xml,PHN2ZyB4bWxucz0iaHR0cDovL3d3dy53My5vcmcvMjAwMC9zdmciIHdpZHRoPSIyNCIgdmlld0JveD0iMCAtOTYwIDk2MCA5NjAiIGhlaWdodD0iMjQiPjxwYXRoIGQ9Ik00ODAtNDAwcS01MCAwLTg1LTM1dC0zNS04NXYtMjQwcTAtNTAgMzUtODV0ODUtMzVxNTAgMCA4NSAzNXQzNSA4NXYyNDBxMCA1MC0zNSA4NXQtODUgMzVabTAtMjQwWm0tNDAgNTIwdi0xMjNxLTEwNC0xNC0xNzItOTN0LTY4LTE4NGg4MHEwIDgzIDU4LjUgMTQxLjVUNDgwLTMyMHE4MyAwIDE0MS41LTU4LjVUNjgwLTUyMGg4MHEwIDEwNS02OCAxODR0LTE3MiA5M3YxMjNoLTgwWm00MC0zNjBxMTcgMCAyOC41LTExLjVUNTIwLTUyMHYtMjQwcTAtMTctMTEuNS0yOC41VDQ4MC04MDBxLTE3IDAtMjguNSAxMS41VDQ0MC03NjB2MjQwcTAgMTcgMTEuNSAyOC41VDQ4MC00ODBaIi8+PC9zdmc+;" parent="1" vertex="1">
          <mxGeometry x="620" y="290" width="20" height="20" as="geometry" />
        </mxCell>
        <mxCell id="oq4RC59p99LL9JI8eV2d-39" value="" style="endArrow=classic;html=1;rounded=0;fillColor=#e51400;strokeColor=#B20000;strokeWidth=2;" parent="1" source="oq4RC59p99LL9JI8eV2d-35" target="oq4RC59p99LL9JI8eV2d-21" edge="1">
          <mxGeometry width="50" height="50" relative="1" as="geometry">
            <mxPoint x="400" y="190" as="sourcePoint" />
            <mxPoint x="560" y="204" as="targetPoint" />
            <Array as="points">
              <mxPoint x="770" y="300" />
            </Array>
          </mxGeometry>
        </mxCell>
        <mxCell id="oq4RC59p99LL9JI8eV2d-40" value="" style="endArrow=classic;html=1;rounded=0;fillColor=#e51400;strokeColor=#B20000;strokeWidth=2;" parent="1" source="oq4RC59p99LL9JI8eV2d-20" target="oq4RC59p99LL9JI8eV2d-34" edge="1">
          <mxGeometry width="50" height="50" relative="1" as="geometry">
            <mxPoint x="410" y="200" as="sourcePoint" />
            <mxPoint x="570" y="214" as="targetPoint" />
            <Array as="points">
              <mxPoint x="770" y="370" />
            </Array>
          </mxGeometry>
        </mxCell>
        <mxCell id="oq4RC59p99LL9JI8eV2d-41" value="" style="endArrow=classic;html=1;rounded=0;fillColor=#e51400;strokeColor=#B20000;strokeWidth=2;" parent="1" source="oq4RC59p99LL9JI8eV2d-34" target="oq4RC59p99LL9JI8eV2d-7" edge="1">
          <mxGeometry width="50" height="50" relative="1" as="geometry">
            <mxPoint x="420" y="210" as="sourcePoint" />
            <mxPoint x="580" y="224" as="targetPoint" />
            <Array as="points" />
          </mxGeometry>
        </mxCell>
        <mxCell id="oq4RC59p99LL9JI8eV2d-42" value="" style="endArrow=classic;html=1;rounded=0;fillColor=#e51400;strokeColor=#B20000;strokeWidth=2;entryX=0;entryY=0.5;entryDx=0;entryDy=0;exitX=1;exitY=0.5;exitDx=0;exitDy=0;" parent="1" source="oq4RC59p99LL9JI8eV2d-3" target="oq4RC59p99LL9JI8eV2d-35" edge="1">
          <mxGeometry width="50" height="50" relative="1" as="geometry">
            <mxPoint x="430" y="220" as="sourcePoint" />
            <mxPoint x="590" y="234" as="targetPoint" />
            <Array as="points" />
          </mxGeometry>
        </mxCell>
        <mxCell id="oq4RC59p99LL9JI8eV2d-44" value="jack&lt;br&gt;cables" style="text;html=1;strokeColor=none;fillColor=none;align=center;verticalAlign=middle;whiteSpace=wrap;rounded=0;" parent="1" vertex="1">
          <mxGeometry x="550" y="320" width="60" height="30" as="geometry" />
        </mxCell>
      </root>
    </mxGraphModel>
  </diagram>
</mxfile>
